# xmcd
#
# Track frame offsets: 
#        150
#        2842
#        7880
#        11110
#        17735
#        21247
#        24477
#        28405
#        34010
#        37135
#        40332
#        48250
#        52335
#        59185
#        62307
#        71010
#        76347
#        83552
#        88540
#        94072
#        97322
#        99302
#        102612
#        107837
#        111645
#        115595
#        121292
#
# Disc length: 1725 seconds
#
# Revision: 0
# Processed by: cddbd v1.5.2PL0 Copyright (c) Steve Scherf et al.
# Submitted via: ExactAudioCopyFreeDBPlugin 1.0
#
DISCID=6e06bb1b
DTITLE=Dó Ré Mi Fon Fon - 27 Cantigas Brasileiras
DYEAR=1900
DGENRE=
TTITLE0=Marcha, soldado!
TTITLE1=Fui no Itororó
TTITLE2=Cachorrinho
TTITLE3=A barata
TTITLE4=A canoa virou
TTITLE5=Caranguejo
TTITLE6=Passa, passa, gavião
TTITLE7=Nesta rua
TTITLE8=O cravo e a rosa
TTITLE9=Cai, cai, balão
TTITLE10=Pezinho
TTITLE11=Sapo jururu
TTITLE12=A pobre e a rica
TTITLE13=Capelinha de melão
TTITLE14=Samba-lelê
TTITLE15=Boi da cara preta
TTITLE16=Teresinha de Jesus
TTITLE17=Meu galinho
TTITLE18=Peixe vivo
TTITLE19=Lavadeira
TTITLE20=Atirei o pau no gato
TTITLE21=Bam-ba-la-lão
TTITLE22=Entrei na roda
TTITLE23=Escravos de Jó
TTITLE24=Ciranda, cirandinha
TTITLE25=A margarida
TTITLE26=Carneirinho, carneirão
EXTD=
EXTT0=
EXTT1=
EXTT2=
EXTT3=
EXTT4=
EXTT5=
EXTT6=
EXTT7=
EXTT8=
EXTT9=
EXTT10=
EXTT11=
EXTT12=
EXTT13=
EXTT14=
EXTT15=
EXTT16=
EXTT17=
EXTT18=
EXTT19=
EXTT20=
EXTT21=
EXTT22=
EXTT23=
EXTT24=
EXTT25=
EXTT26=
PLAYORDER=
